# xmcd
#
# Track frame offsets:
#       150
#       23550
#       41512
#       57172
#       79770
#       114882
#       138397
#       153417
#       173922
#       200500
#       246140
#       266337
#       292132
#       310172
#
# Disc length: 4662 seconds
#
# Revision: 2
# Processed by: cddbd v1.4PL0 Copyright (c) Steve Scherf et al.
# Submitted via: WhereIsIt 3.24
#
DISCID=b912340e
DTITLE=Van Morrison - I like candy [CD1]
DYEAR=1900
DGENRE=
TTITLE0=Intro "Chicken"
TTITLE1=Jackie Wilson said (I´m in heaven when you smile)
TTITLE2=These dreams of you
TTITLE3=Raincheck
TTITLE4=Moondance/My Funny Valentine
TTITLE5=Rough god goes riding
TTITLE6=Give me a kiss
TTITLE7=That´s life
TTITLE8=Naxed in the jungle
TTITLE9=In the afternoon
TTITLE10=Satisfied
TTITLE11=Georgia on my mind
TTITLE12=Call me up in dreamland
TTITLE13=Summertime in england
EXTD=
EXTT0=
EXTT1=
EXTT2=
EXTT3=
EXTT4=
EXTT5=
EXTT6=
EXTT7=
EXTT8=
EXTT9=
EXTT10=
EXTT11=
EXTT12=
EXTT13=
PLAYORDER=
